#!OML:ASF F:\VICON\USERDATA\INSTALL\rory3\rory3.ASF
:FULLY-SPECIFIED
:DEGREES
467
root 18.0619 15.8314 -13.7806 -178.583 77.9258 -177.227
lowerback 7.04015 -1.18599 -0.0991465
upperback -0.844778 -1.57298 0.309469
thorax -4.81468 -0.770494 0.550661
lowerneck -7.64875 -12.1049 -15.9073
upperneck 28.2334 -17.5728 13.6107
head 13.5374 -7.78949 5.32483
rclavicle 5.26185e-015 2.70223e-016
rhumerus -38.9542 -0.124744 -85.6695
rradius 31.4307
rwrist 8.29891
rhand -17.3421 13.8968
rfingers 7.12502
rthumb 8.90519 -15.8953
lclavicle 5.26185e-015 2.70223e-016
lhumerus -35.5671 12.6126 78.1121
lradius 21.5744
lwrist -8.42446
lhand -10.5127 12.2629
lfingers 7.12502
lthumb 15.4899 41.6624
rfemur -13.8636 0.412932 32.073
rtibia 28.1169
rfoot -21.3949 -27.5742
rtoes 25.6915
lfemur -7.37666 12.9082 -17.246
ltibia 60.1781
lfoot 10.5095 3.01833
ltoes -11.1365
468
root 18.1171 15.8203 -13.7818 -177.294 78.4498 -175.602
lowerback 7.32426 -1.14497 0.0192607
upperback -0.761 -1.5023 0.389976
thorax -4.88942 -0.736738 0.565184
lowerneck -7.4545 -12.168 -15.9328
upperneck 28.2931 -17.7018 13.6484
head 13.5551 -7.85153 5.33133
rclavicle -1.62263e-014 8.44835e-016
rhumerus -39.1375 -0.0321386 -85.8304
rradius 31.7552
rwrist 8.06405
rhand -17.359 13.7815
rfingers 7.12502
rthumb 8.8889 -16.0113
lclavicle -1.62263e-014 8.44835e-016
lhumerus -35.1092 12.9371 77.7433
lradius 20.5241
lwrist -9.07864
lhand -10.6782 11.5026
lfingers 7.12502
lthumb 15.3305 40.9144
rfemur -13.2204 0.871118 32.5345
rtibia 27.9983
rfoot -21.4667 -27.7701
rtoes 25.6478
lfemur -7.92594 12.6887 -16.5612
ltibia 61.2019
lfoot 9.49542 3.67482
ltoes -8.57547
469
root 18.163 15.8187 -13.7924 -177.647 79.044 -175.872
lowerback 7.4229 -1.15872 -0.161285
upperback -0.682444 -1.53674 0.380298
thorax -4.85841 -0.749034 0.661514
lowerneck -7.42729 -12.1753 -15.9852
upperneck 28.3564 -17.7298 13.6888
head 13.5936 -7.86665 5.35418
rclavicle 5.56413e-016 -3.42904e-015
rhumerus -39.1371 0.325891 -86.0318
rradius 32.0608
rwrist 7.89087
rhand -17.2269 13.5944
rfingers 7.12502
rthumb 9.01636 -16.1929
lclavicle 5.56413e-016 -3.42904e-015
lhumerus -34.7816 12.8902 77.7574
lradius 20.1425
lwrist -9.15981
lhand -11.3721 11.695
lfingers 7.12502
lthumb 14.662 41.1566
rfemur -12.8702 1.21964 32.4934
rtibia 27.9829
rfoot -21.2371 -27.7563
rtoes 25.0835
lfemur -8.70464 12.4837 -16.4577
ltibia 62.0237
lfoot 8.186 4.49754
ltoes -7.28524
470
root 18.2007 15.8144 -13.803 -174.696 79.6948 -172.912
lowerback 7.45195 -1.22381 0.292791
upperback -0.638133 -1.57639 0.481774
thorax -4.83766 -0.778814 0.516447
lowerneck -7.42333 -12.1437 -15.9069
upperneck 28.4228 -17.7239 13.7348
head 13.6166 -7.85139 5.3651
rclavicle 1.19911e-015 1.98785e-015
rhumerus -38.9538 0.581593 -86.3105
rradius 32.1322
rwrist 7.92417
rhand -17.0688 13.8329
rfingers 7.12502
rthumb 9.16894 -15.9478
lclavicle 1.19911e-015 1.98785e-015
lhumerus -34.6762 13.0037 77.4778
lradius 20.337
lwrist -9.71409
lhand -11.1706 12.1049
lfingers 7.12502
lthumb 14.8561 41.5523
rfemur -12.7867 1.50375 33.0543
rtibia 28.1273
rfoot -20.6546 -27.6997
rtoes 23.5797
lfemur -9.64219 12.3978 -15.8124
ltibia 62.6944
lfoot 7.00557 4.94684
ltoes -7.69441
471
root 18.2335 15.8065 -13.8169 -174.058 80.4578 -172.393
lowerback 7.46022 -1.18286 0.302996
upperback -0.646442 -1.52278 0.445769
thorax -4.85252 -0.753109 0.467559
lowerneck -7.34119 -12.1728 -15.847
upperneck 28.4956 -17.7996 13.7394
head 13.6391 -7.88067 5.3496
rclavicle -8.76866e-015 -1.73937e-015
rhumerus -38.76 0.739493 -86.5144
rradius 32.108
rwrist 7.85439
rhand -16.9807 14.345
rfingers 7.12502
rthumb 9.25395 -15.4319
lclavicle -8.76866e-015 -1.73937e-015
lhumerus -34.5293 13.0374 77.2395
lradius 20.4384
lwrist -9.96694
lhand -10.7892 11.9462
lfingers 7.12502
lthumb 15.2235 41.3661
rfemur -12.8622 1.72625 33.0743
rtibia 28.3557
rfoot -20.0732 -27.4914
rtoes 22.0536
lfemur -10.5839 12.1781 -15.8315
ltibia 63.1222
lfoot 5.76401 5.34893
ltoes -9.20156
472
root 18.2678 15.7991 -13.8346 -175.85 81.2663 -174.287
lowerback 7.53167 -1.06073 -0.0544815
upperback -0.691096 -1.39878 0.33061
thorax -4.93424 -0.683974 0.536722
lowerneck -7.13212 -12.2637 -15.9938
upperneck 28.5694 -17.9608 13.8039
head 13.685 -7.96779 5.38086
rclavicle 9.47488e-015 3.8266e-015
rhumerus -38.7623 0.881337 -86.5961
rradius 32.2328
rwrist 7.73058
rhand -16.9139 14.4704
rfingers 7.12502
rthumb 9.31845 -15.3037
lclavicle 9.47488e-015 3.8266e-015
lhumerus -34.3979 12.727 77.3669
lradius 20.4858
lwrist -9.63549
lhand -10.9239 11.8655
lfingers 7.12502
lthumb 15.0938 41.2952
rfemur -12.8256 1.93552 32.6816
rtibia 28.5392
rfoot -19.9171 -27.0912
rtoes 21.6424
lfemur -11.3837 11.7015 -16.2997
ltibia 63.3809
lfoot 4.56722 5.59734
ltoes -11.042
